<svg width="9" height="9" viewBox="0 0 9 9" fill="none" xmlns="http://www.w3.org/2000/svg">
<path d="M6.22 0.491999C7.144 0.144 7.708 0.935999 7.828 1.284C7.96 1.632 8.02 2.592 7.108 2.94C6.184 3.276 5.62 2.496 5.488 2.148C5.368 1.8 5.296 0.827999 6.22 0.491999ZM6.808 2.1C7.096 1.992 7.072 1.68 7.036 1.572C7 1.464 6.82 1.212 6.52 1.32C6.232 1.428 6.256 1.74 6.292 1.848C6.328 1.956 6.508 2.208 6.808 2.1ZM1.144 4.8C1.444 3.984 2.356 2.004 3.052 2.256C3.748 2.496 3.196 4.62 2.908 5.436C2.62 6.24 1.696 8.232 1 7.98C0.316 7.74 0.856 5.616 1.144 4.8ZM7.132 7.524C6.436 7.752 5.752 6.312 5.548 5.724C5.344 5.124 5.032 3.564 5.728 3.324C6.424 3.096 7.12 4.524 7.312 5.124C7.516 5.724 7.828 7.284 7.132 7.524Z" fill="#E94709"/>
</svg>
