<svg width="10" height="10" viewBox="0 0 10 10" fill="none" xmlns="http://www.w3.org/2000/svg">
<mask id="path-1-outside-1_1_3" maskUnits="userSpaceOnUse" x="0" y="0" width="10" height="11" fill="black">
<rect fill="white" width="10" height="11"/>
<path d="M7.22 1.492C8.144 1.144 8.708 1.936 8.828 2.284C8.96 2.632 9.02 3.592 8.108 3.94C7.184 4.276 6.62 3.496 6.488 3.148C6.368 2.8 6.296 1.828 7.22 1.492ZM7.808 3.1C8.096 2.992 8.072 2.68 8.036 2.572C8 2.464 7.82 2.212 7.52 2.32C7.232 2.428 7.256 2.74 7.292 2.848C7.328 2.956 7.508 3.208 7.808 3.1ZM2.144 5.8C2.444 4.984 3.356 3.004 4.052 3.256C4.748 3.496 4.196 5.62 3.908 6.436C3.62 7.24 2.696 9.232 2 8.98C1.316 8.74 1.856 6.616 2.144 5.8ZM8.132 8.524C7.436 8.752 6.752 7.312 6.548 6.724C6.344 6.124 6.032 4.564 6.728 4.324C7.424 4.096 8.12 5.524 8.312 6.124C8.516 6.724 8.828 8.284 8.132 8.524Z"/>
</mask>
<path d="M7.22 1.492C8.144 1.144 8.708 1.936 8.828 2.284C8.96 2.632 9.02 3.592 8.108 3.94C7.184 4.276 6.62 3.496 6.488 3.148C6.368 2.8 6.296 1.828 7.22 1.492ZM7.808 3.1C8.096 2.992 8.072 2.68 8.036 2.572C8 2.464 7.82 2.212 7.52 2.32C7.232 2.428 7.256 2.74 7.292 2.848C7.328 2.956 7.508 3.208 7.808 3.1ZM2.144 5.8C2.444 4.984 3.356 3.004 4.052 3.256C4.748 3.496 4.196 5.62 3.908 6.436C3.62 7.24 2.696 9.232 2 8.98C1.316 8.74 1.856 6.616 2.144 5.8ZM8.132 8.524C7.436 8.752 6.752 7.312 6.548 6.724C6.344 6.124 6.032 4.564 6.728 4.324C7.424 4.096 8.12 5.524 8.312 6.124C8.516 6.724 8.828 8.284 8.132 8.524Z" fill="#E94709"/>
<path d="M7.22 1.492L7.56177 2.43185L7.57246 2.42783L7.22 1.492ZM8.828 2.284L7.88263 2.60999L7.8876 2.6244L7.893 2.63865L8.828 2.284ZM8.108 3.94L8.44974 4.87979L8.45715 4.8771L8.46451 4.87429L8.108 3.94ZM6.488 3.148L5.54263 3.47399L5.5476 3.4884L5.553 3.50265L6.488 3.148ZM7.808 3.1L8.14675 4.04097L8.15912 4.03633L7.808 3.1ZM8.036 2.572L7.08732 2.88822L7.08732 2.88823L8.036 2.572ZM7.52 2.32L7.18125 1.37903L7.16888 1.38367L7.52 2.32ZM7.292 2.848L8.24069 2.53178L8.24068 2.53177L7.292 2.848ZM2.144 5.8L1.20534 5.45491L1.20101 5.46718L2.144 5.8ZM4.052 3.256L3.71156 4.19627L3.71877 4.19887L3.72601 4.20137L4.052 3.256ZM3.908 6.436L4.84943 6.77323L4.85099 6.76882L3.908 6.436ZM2 8.98L2.34046 8.03969L2.33109 8.0364L2 8.98ZM8.132 8.524L8.44331 9.47431L8.45067 9.4719L8.45799 9.46937L8.132 8.524ZM6.548 6.724L5.60121 7.04591L5.60324 7.05177L6.548 6.724ZM6.728 4.324L6.41669 3.37369L6.40933 3.3761L6.40201 3.37863L6.728 4.324ZM8.312 6.124L7.35958 6.42878L7.36232 6.43736L7.36523 6.4459L8.312 6.124ZM7.22 1.492L7.57246 2.42783C7.64836 2.39924 7.67887 2.40624 7.67995 2.40642C7.68616 2.40745 7.70428 2.41164 7.73627 2.43496C7.77078 2.46013 7.80887 2.49894 7.84259 2.54611C7.87895 2.59696 7.88835 2.62657 7.88263 2.60999L8.828 2.284L9.77337 1.95801C9.65404 1.61194 9.36868 1.15009 8.91473 0.819036C8.40872 0.450007 7.68632 0.2478 6.86755 0.556171L7.22 1.492ZM8.828 2.284L7.893 2.63865C7.88608 2.6204 7.89753 2.64726 7.9018 2.70929C7.90573 2.76644 7.90125 2.82233 7.88988 2.86737C7.87919 2.90975 7.86558 2.93123 7.85625 2.94241C7.85007 2.9498 7.82666 2.97703 7.75149 3.00571L8.108 3.94L8.46451 4.87429C9.26722 4.56799 9.67859 3.95328 9.82912 3.35663C9.96542 2.81636 9.89608 2.2802 9.763 1.92935L8.828 2.284ZM8.108 3.94L7.76626 3.00021C7.68922 3.02822 7.65582 3.02186 7.65062 3.02098C7.6405 3.01927 7.61935 3.01347 7.58519 2.98888C7.54859 2.96254 7.50857 2.92245 7.47258 2.8735C7.4346 2.82184 7.42059 2.78699 7.423 2.79334L6.488 3.148L5.553 3.50265C5.67796 3.83208 5.96189 4.28467 6.41681 4.61212C6.92021 4.97446 7.63529 5.17596 8.44974 4.87979L8.108 3.94ZM6.488 3.148L7.43337 2.82201C7.43584 2.82917 7.424 2.79267 7.41982 2.72659C7.41586 2.66403 7.4208 2.60518 7.43238 2.55908C7.44327 2.51571 7.4565 2.49641 7.46331 2.48834C7.46659 2.48445 7.487 2.45897 7.56174 2.43179L7.22 1.492L6.87826 0.552206C6.05855 0.850281 5.64334 1.47176 5.49262 2.07192C5.35626 2.61488 5.42881 3.14391 5.54263 3.47399L6.488 3.148ZM7.808 3.1L8.15912 4.03633C8.66765 3.84563 8.9264 3.43785 9.01525 3.072C9.09116 2.75946 9.05342 2.46199 8.98468 2.25577L8.036 2.572L7.08732 2.88823C7.06552 2.82284 7.05974 2.77559 7.05792 2.74574C7.05587 2.71219 7.05661 2.66234 7.07175 2.6C7.08743 2.53541 7.12205 2.44467 7.19581 2.3544C7.27358 2.25922 7.36897 2.19664 7.45688 2.16367L7.808 3.1ZM8.036 2.572L8.98468 2.25578C8.90539 2.01789 8.73187 1.74939 8.46351 1.55506C8.14332 1.32319 7.68053 1.19938 7.18128 1.37911L7.52 2.32L7.85872 3.26089C7.7809 3.2889 7.67424 3.30481 7.55471 3.28451C7.43977 3.26499 7.35074 3.21857 7.29049 3.17494C7.23279 3.13316 7.19477 3.08954 7.16975 3.05466C7.14806 3.02442 7.11512 2.97163 7.08732 2.88822L8.036 2.572ZM7.52 2.32L7.16888 1.38367C6.66035 1.57437 6.4016 1.98215 6.31275 2.348C6.23684 2.66054 6.27458 2.95801 6.34332 3.16423L7.292 2.848L8.24068 2.53177C8.26248 2.59716 8.26826 2.64441 8.27008 2.67426C8.27213 2.70781 8.27139 2.75766 8.25625 2.82C8.24057 2.88459 8.20595 2.97532 8.13219 3.0656C8.05442 3.16078 7.95903 3.22336 7.87112 3.25633L7.52 2.32ZM7.292 2.848L6.34332 3.16422C6.42261 3.40211 6.59613 3.67061 6.86449 3.86494C7.18468 4.09681 7.64748 4.22061 8.14672 4.04089L7.808 3.1L7.46928 2.15911C7.5471 2.1311 7.65376 2.11519 7.77329 2.13549C7.88823 2.15501 7.97726 2.20143 8.03751 2.24506C8.09521 2.28684 8.13323 2.33046 8.15825 2.36533C8.17994 2.39558 8.21288 2.44837 8.24069 2.53178L7.292 2.848ZM2.144 5.8L3.08258 6.14507C3.21781 5.77724 3.49324 5.1456 3.79813 4.65649C3.95513 4.40462 4.08123 4.25409 4.15725 4.18823C4.26453 4.09528 4.06475 4.32415 3.71156 4.19627L4.052 3.256L4.39244 2.31573C3.69125 2.06185 3.11647 2.44372 2.84762 2.67665C2.54752 2.93666 2.29637 3.28488 2.10087 3.59851C1.70076 4.24039 1.37019 5.00676 1.20542 5.45493L2.144 5.8ZM4.052 3.256L3.72601 4.20137C3.36212 4.07589 3.3533 3.76257 3.37768 3.90646C3.39462 4.00638 3.3963 4.20418 3.3575 4.49989C3.28213 5.07426 3.09347 5.73922 2.96501 6.10318L3.908 6.436L4.85099 6.76882C5.01054 6.31678 5.24187 5.51174 5.3405 4.76011C5.3887 4.39282 5.41588 3.96362 5.34957 3.57229C5.2907 3.22493 5.08988 2.55611 4.37799 2.31063L4.052 3.256ZM3.908 6.436L2.96658 6.09877C2.83961 6.45323 2.56523 7.08352 2.25875 7.5744C2.10116 7.82681 1.97373 7.97906 1.89615 8.04633C1.78547 8.1423 1.98522 7.91112 2.34044 8.03973L2 8.98L1.65956 9.92027C2.36278 10.1749 2.93903 9.7892 3.20635 9.55742C3.50677 9.29694 3.75884 8.94819 3.95525 8.6336C4.35677 7.99048 4.68839 7.22277 4.84942 6.77323L3.908 6.436ZM2 8.98L2.33109 8.0364C2.69926 8.16558 2.70505 8.48306 2.67975 8.33174C2.66266 8.22952 2.66112 8.02985 2.69929 7.7339C2.7735 7.15842 2.95963 6.49366 3.08699 6.13282L2.144 5.8L1.20101 5.46718C1.04037 5.92233 0.8125 6.72758 0.715713 7.4781C0.668378 7.84515 0.642089 8.27248 0.707125 8.66151C0.763952 9.00144 0.958736 9.67442 1.66891 9.9236L2 8.98ZM8.132 8.524L7.82069 7.57369C8.03864 7.50229 8.18919 7.59967 8.18118 7.59423C8.15998 7.57984 8.08501 7.51407 7.97473 7.35654C7.75946 7.04901 7.57462 6.6322 7.49276 6.39623L6.548 6.724L5.60324 7.05177C5.72538 7.4038 5.98454 8.00099 6.33627 8.50346C6.50949 8.75093 6.74877 9.03916 7.05795 9.24902C7.38031 9.46783 7.87736 9.65971 8.44331 9.47431L8.132 8.524ZM6.548 6.724L7.49477 6.4021C7.41632 6.17134 7.31243 5.73008 7.29995 5.35569C7.29358 5.16462 7.31424 5.06703 7.32273 5.04247C7.32602 5.03294 7.26558 5.19641 7.05399 5.26937L6.728 4.324L6.40201 3.37863C5.84242 3.57159 5.55998 4.02006 5.4324 4.38928C5.31001 4.74347 5.29092 5.11838 5.30106 5.42231C5.32158 6.03792 5.47569 6.67666 5.60123 7.0459L6.548 6.724ZM6.728 4.324L7.03931 5.27431C6.82478 5.34458 6.67708 5.24981 6.68591 5.25573C6.70735 5.27008 6.78253 5.33515 6.8922 5.49042C7.10761 5.7954 7.28839 6.20633 7.35958 6.42878L8.312 6.124L9.26442 5.81922C9.14361 5.44167 8.88039 4.8386 8.5258 4.33658C8.35047 4.08835 8.10915 3.80167 7.79834 3.59365C7.47492 3.37719 6.97922 3.18942 6.41669 3.37369L6.728 4.324ZM8.312 6.124L7.36523 6.4459C7.44369 6.67666 7.54758 7.11792 7.56006 7.49231C7.56642 7.68338 7.54576 7.78097 7.53727 7.80553C7.53398 7.81506 7.59442 7.65159 7.80601 7.57863L8.132 8.524L8.45799 9.46937C9.01758 9.27641 9.30002 8.82794 9.4276 8.45872C9.54999 8.10453 9.56908 7.72962 9.55895 7.42568C9.53843 6.81008 9.38432 6.17134 9.25877 5.8021L8.312 6.124Z" fill="#3DC2FF" mask="url(#path-1-outside-1_1_3)"/>
</svg>
