<svg width="29" height="27" viewBox="0 0 29 27" fill="none" xmlns="http://www.w3.org/2000/svg">
<path d="M12.22 1.492C13.144 1.144 13.708 1.936 13.828 2.284C13.96 2.632 14.02 3.592 13.108 3.94C12.184 4.276 11.62 3.496 11.488 3.148C11.368 2.8 11.296 1.828 12.22 1.492ZM12.808 3.1C13.096 2.992 13.072 2.68 13.036 2.572C13 2.464 12.82 2.212 12.52 2.32C12.232 2.428 12.256 2.74 12.292 2.848C12.328 2.956 12.508 3.208 12.808 3.1ZM7.144 5.8C7.444 4.984 8.356 3.004 9.052 3.256C9.748 3.496 9.196 5.62 8.908 6.436C8.62 7.24 7.696 9.232 7 8.98C6.316 8.74 6.856 6.616 7.144 5.8ZM13.132 8.524C12.436 8.752 11.752 7.312 11.548 6.724C11.344 6.124 11.032 4.564 11.728 4.324C12.424 4.096 13.12 5.524 13.312 6.124C13.516 6.724 13.828 8.284 13.132 8.524Z" fill="#E94709"/>
<path d="M20.896 10.436C20.152 9.752 21.976 8.984 22.816 6.716C23.32 5.384 22.864 4.94 21.796 4.94C21.064 4.94 20.704 5.156 20.656 5.576C20.632 5.888 20.572 6.968 19.84 6.968C19.192 6.968 18.916 6.08 18.916 5.252C18.916 4.436 19.228 3.8 19.732 3.5C20.164 3.248 20.872 3.08 21.808 3.08C22.744 3.056 24.28 3.176 24.748 3.92C25.192 4.616 25.18 5.732 24.76 7.004C23.884 9.656 21.52 11.024 20.896 10.436Z" fill="#E94709"/>
<path d="M7.26 19.352C7.692 19.556 8.112 19.928 8.316 20.156C8.688 20.564 9.48 21.728 8.94 22.22C8.388 22.724 7.308 21.824 6.936 21.416C6.792 21.248 6.576 20.972 6.408 20.66C5.076 22.304 3.456 22.892 3.06 22.172C2.676 21.488 4.26 20.84 5.412 18.764C5.892 17.888 6.012 17.3 5.136 17.24C4.068 17.168 3.24 16.988 3.252 16.256C3.276 15.524 4.68 15.38 5.424 15.392C6.36 15.428 7.428 15.596 7.8 16.376C8.148 17.096 7.932 18.092 7.284 19.316C7.284 19.328 7.272 19.34 7.26 19.352Z" fill="#E94709"/>
<path d="M20.092 14.384C20.224 14.732 20.296 15.704 19.372 16.04C18.448 16.388 17.884 15.596 17.764 15.248C17.632 14.9 17.572 13.94 18.484 13.592C19.408 13.256 19.972 14.036 20.092 14.384ZM15.988 22.532C15.244 22.52 15.064 19.592 15.064 18.416V18.224C13.948 18.212 12.568 18.044 12.532 17.492C12.496 16.916 14.056 16.568 15.196 16.424C15.328 15.344 15.58 14.312 16.012 14.312C16.432 14.312 16.672 15.284 16.804 16.328C17.932 16.34 19.432 16.496 19.456 17.06C19.492 17.624 18.052 17.96 16.924 18.116C16.924 19.676 16.72 22.532 15.988 22.532ZM19.072 15.212C19.36 15.104 19.336 14.792 19.3 14.684C19.264 14.564 19.084 14.324 18.784 14.432C18.496 14.54 18.52 14.852 18.556 14.96C18.592 15.068 18.772 15.32 19.072 15.212ZM12.52 21.728C11.86 21.416 12.172 20.3 12.376 19.892C12.568 19.496 13.24 18.548 13.912 18.872C14.572 19.184 14.26 20.3 14.056 20.696C13.864 21.104 13.192 22.052 12.52 21.728ZM19.468 21.728C18.808 22.052 18.136 21.104 17.932 20.696C17.74 20.3 17.428 19.184 18.088 18.872C18.748 18.548 19.432 19.496 19.624 19.892C19.816 20.3 20.14 21.416 19.468 21.728Z" fill="#E94709"/>
<path d="M25.84 14.816L27.424 14.624H27.988L27.58 20.396H26.332L25.84 14.816ZM25.9 21.716L27.7 21.248L28.144 22.904L26.356 23.384L25.9 21.716Z" fill="#E94709"/>
</svg>
